<svg xmlns="http://www.w3.org/2000/svg" viewBox="0 0 94.07 795.71"><defs><style>.cls-1,.cls-12,.cls-16,.cls-4,.cls-5,.cls-9{fill:none;}.cls-1{stroke:#231f20;stroke-width:0.25px;}.cls-1,.cls-3{stroke-miterlimit:10;}.cls-2{fill:#004da0;}.cls-10,.cls-11,.cls-13,.cls-14,.cls-15,.cls-17,.cls-3,.cls-6,.cls-7,.cls-8{fill:#fff;}.cls-3{stroke:#404041;stroke-width:2px;}.cls-10,.cls-14,.cls-16,.cls-17,.cls-4,.cls-5,.cls-6,.cls-9{stroke:#002d54;}.cls-10,.cls-14,.cls-16,.cls-17,.cls-4,.cls-6,.cls-8,.cls-9{stroke-linecap:round;stroke-linejoin:round;}.cls-4,.cls-5,.cls-6,.cls-7{stroke-width:1.21px;}.cls-11,.cls-12,.cls-13,.cls-15,.cls-7,.cls-8{stroke:#004da0;}.cls-8,.cls-9{stroke-width:1.25px;}.cls-10,.cls-11,.cls-12{stroke-width:1.28px;}.cls-13,.cls-14{stroke-width:1.25px;}.cls-15,.cls-16,.cls-17{stroke-width:1.29px;}.cls-18{fill:#808285;}</style></defs><g id="레이어_2" data-name="레이어 2"><g id="Layer_1" data-name="Layer 1"><line class="cls-1" x1="5.49" x2="5.49" y2="795.71"/><path class="cls-2" d="M36.38,114.1h1.5l-.77,4.28h0c.28-.39.56-.72.82-1l2.73-3.23H42.6l-3.62,4,2.14,5.24H39.46l-1.66-4.24-1,1-.6,3.27H34.72Z"/><path class="cls-2" d="M45.11,114.1l-1.67,9.22H41.92l1.67-9.22Z"/><path class="cls-2" d="M51.62,123.05a5.63,5.63,0,0,1-2.29.41,3.54,3.54,0,0,1-3.73-3.87,5.68,5.68,0,0,1,2-4.55A5.14,5.14,0,0,1,50.92,114a3.82,3.82,0,0,1,1.91.42l-.44,1.29a3.7,3.7,0,0,0-1.65-.33,3.3,3.3,0,0,0-2.24.85,4.35,4.35,0,0,0-1.26,3.22c0,1.54.75,2.71,2.48,2.71a4.19,4.19,0,0,0,1.76-.36Z"/><path class="cls-2" d="M54.36,114.1h1.5l-.77,4.28h0c.28-.39.56-.72.82-1l2.73-3.23h1.89l-3.62,4,2.13,5.24H57.44l-1.66-4.24-1,1-.6,3.27H52.7Z"/><path class="cls-2" d="M63.46,119.09l-.21,1.17H60l.22-1.17Z"/><path class="cls-2" d="M72.5,117.77a6.47,6.47,0,0,1-1.59,4.4,4.2,4.2,0,0,1-3.13,1.3c-2.26,0-3.45-1.73-3.45-3.8A6.49,6.49,0,0,1,66,115.24,4.31,4.31,0,0,1,69.05,114C71.39,114,72.5,115.66,72.5,117.77Zm-5.36-1.69a5.55,5.55,0,0,0-1.21,3.51c0,1.39.6,2.54,2.07,2.54a2.28,2.28,0,0,0,1.7-.78,5.65,5.65,0,0,0,1.19-3.53c0-1.22-.41-2.53-2-2.53A2.36,2.36,0,0,0,67.14,116.08Z"/><path class="cls-2" d="M74.63,114.1h4.83l-.26,1.35H75.9l-.47,2.6H78.5l-.24,1.35H75.19l-.7,3.92H73Z"/><path class="cls-2" d="M39.3,135.33l.59-4.34c.13-1,.31-2.25.53-3.38h0c-.45,1.08-1,2.27-1.46,3.24l-2.15,4.37H35.6l-.46-4.3c-.1-1-.18-2.22-.23-3.31h0c-.23,1-.49,2.45-.71,3.38l-1,4.34H31.76L34,126.1h2l.46,4.31c.07.82.16,1.78.17,2.66h.06c.31-.88.72-1.85,1.1-2.65l2.12-4.32h2l-1.16,9.23Z"/><path class="cls-2" d="M47.8,131.22H44.66l-.5,2.75H47.7l-.25,1.36H42.4l1.66-9.23h4.86l-.25,1.36H45.33l-.44,2.42h3.16Z"/><path class="cls-2" d="M54.25,131.22H51.11l-.5,2.75h3.54l-.25,1.36H48.84l1.67-9.23h4.86l-.25,1.36H51.78l-.44,2.42H54.5Z"/><path class="cls-2" d="M58.27,127.5H55.84l.26-1.4h6.38l-.26,1.4H59.78l-1.41,7.83H56.85Z"/><path class="cls-2" d="M65,126.1l-1.67,9.23H61.8l1.67-9.23Z"/><path class="cls-2" d="M65.16,135.33l1.66-9.23h1.74l1.54,4.28a23.81,23.81,0,0,1,.79,2.89h0a24.12,24.12,0,0,1,.39-3.12L72,126.1h1.43l-1.67,9.23H70.25L68.68,131a24.48,24.48,0,0,1-.83-3h0c-.09.88-.28,2-.51,3.38l-.72,4Z"/><path class="cls-2" d="M80.51,134.91a8.06,8.06,0,0,1-2.68.51A3.79,3.79,0,0,1,75,134.34a3.88,3.88,0,0,1-1-2.76,5.67,5.67,0,0,1,1.75-4.22A5.58,5.58,0,0,1,79.45,126a5,5,0,0,1,2.21.43l-.47,1.34a4.14,4.14,0,0,0-1.86-.38,3.59,3.59,0,0,0-2.45.9,4.3,4.3,0,0,0-1.28,3.16,2.3,2.3,0,0,0,2.49,2.62,2.93,2.93,0,0,0,1.12-.21l.42-2.31H78.08l.25-1.29h3Z"/><path class="cls-2" d="M32.19,249a9.08,9.08,0,0,1,2.12-.22,3.52,3.52,0,0,1,2.24.66,2.19,2.19,0,0,1,.8,1.83,3.22,3.22,0,0,1-1.12,2.5,4.27,4.27,0,0,1-2.74.88,6.28,6.28,0,0,1-.82-.07l-.62,3.49h-1.5Zm.72,4.27a3.56,3.56,0,0,0,.79.08,2,2,0,0,0,2.13-2c0-1-.66-1.33-1.52-1.33a2.75,2.75,0,0,0-.83.09Z"/><path class="cls-2" d="M39.17,248.87h1.52l-1.41,7.83h3.44l-.25,1.39h-5Z"/><path class="cls-2" d="M45.71,255.46l-1.2,2.63H42.9l4.4-9.22h1.89l1.11,9.22H48.71l-.24-2.63Zm2.67-1.23-.25-2.3c0-.49-.09-1.2-.13-1.75h0c-.23.55-.47,1.2-.71,1.75l-1.07,2.3Z"/><path class="cls-2" d="M51.33,258.09,53,248.87h1.74l1.54,4.28a26.82,26.82,0,0,1,.79,2.89h0a24.12,24.12,0,0,1,.39-3.12l.72-4h1.43L58,258.09H56.42l-1.57-4.36a24.48,24.48,0,0,1-.83-3H54c-.1.88-.28,2-.51,3.38l-.72,3.94Z"/><path class="cls-2" d="M59.79,258.09l1.66-9.22H63.2l1.53,4.28a22.86,22.86,0,0,1,.79,2.89h0a24.12,24.12,0,0,1,.39-3.12l.73-4H68.1l-1.67,9.22H64.89l-1.58-4.36a24.48,24.48,0,0,1-.83-3h0c-.09.88-.27,2-.51,3.38l-.71,3.94Z"/><path class="cls-2" d="M71.41,248.87l-1.66,9.22H68.23l1.66-9.22Z"/><path class="cls-2" d="M71.58,258.09l1.66-9.22H75l1.53,4.28a22.86,22.86,0,0,1,.79,2.89h0a26,26,0,0,1,.39-3.12l.73-4h1.43l-1.67,9.22H76.68l-1.58-4.36a24.48,24.48,0,0,1-.83-3h0c-.09.88-.27,2-.51,3.38L73,258.09Z"/><path class="cls-2" d="M86.93,257.68a8,8,0,0,1-2.67.51,3.59,3.59,0,0,1-3.89-3.85,5.64,5.64,0,0,1,1.75-4.21,5.55,5.55,0,0,1,3.75-1.36,4.91,4.91,0,0,1,2.21.43l-.47,1.34a4.13,4.13,0,0,0-1.86-.39,3.58,3.58,0,0,0-2.44.91A4.26,4.26,0,0,0,82,254.22a2.31,2.31,0,0,0,2.5,2.61,2.94,2.94,0,0,0,1.11-.2l.42-2.32H84.5l.25-1.28h3Z"/><path class="cls-2" d="M19.16,402.18a11.26,11.26,0,0,1,2.23-.21,4.09,4.09,0,0,1,3.08,1.11,3.69,3.69,0,0,1,1,2.71,5.81,5.81,0,0,1-1.71,4.29,5.53,5.53,0,0,1-3.93,1.24,18.71,18.71,0,0,1-2.19-.13Zm.12,7.79a6.72,6.72,0,0,0,.92,0,3.32,3.32,0,0,0,2.66-1.13,4.7,4.7,0,0,0,1-3.07,2.27,2.27,0,0,0-2.5-2.56,4.88,4.88,0,0,0-.93.08Z"/><path class="cls-2" d="M30.71,407.16h-3l-.48,2.75h3.4l-.24,1.36H25.52L27.11,402h4.67l-.24,1.36h-3.2l-.43,2.42h3Z"/><path class="cls-2" d="M33.09,411.27l-1-9.23h1.48l.49,5.08c.1,1,.15,1.7.18,2.49h0c.27-.75.6-1.6,1-2.56l2.24-5h1.61l-4.38,9.23Z"/><path class="cls-2" d="M43.38,407.16h-3l-.48,2.75h3.4L43,411.27H38.18l1.6-9.23h4.67l-.24,1.36H41l-.42,2.42h3Z"/><path class="cls-2" d="M45.6,402h1.46l-1.36,7.83H49l-.23,1.4H44Z"/><path class="cls-2" d="M57.59,405.71a6.72,6.72,0,0,1-1.52,4.41,4,4,0,0,1-3,1.3c-2.17,0-3.31-1.74-3.31-3.81a6.65,6.65,0,0,1,1.57-4.43,4.09,4.09,0,0,1,3-1.29C56.53,401.89,57.59,403.6,57.59,405.71ZM52.45,404a5.64,5.64,0,0,0-1.16,3.5c0,1.4.57,2.55,2,2.55a2.23,2.23,0,0,0,1.64-.78A5.9,5.9,0,0,0,56,405.77c0-1.22-.38-2.54-1.93-2.54A2.21,2.21,0,0,0,52.45,404Z"/><path class="cls-2" d="M59.24,402.19a8.86,8.86,0,0,1,2-.22,3.28,3.28,0,0,1,2.15.66,2.23,2.23,0,0,1,.77,1.83A3.29,3.29,0,0,1,63.12,407a4,4,0,0,1-2.63.88,7.73,7.73,0,0,1-.79-.07l-.6,3.49H57.66Zm.68,4.27a2.88,2.88,0,0,0,.76.09,1.94,1.94,0,0,0,2-2c0-1-.64-1.33-1.46-1.33a3,3,0,0,0-.8.08Z"/><path class="cls-2" d="M71,411.27l.56-4.34c.12-.95.3-2.25.51-3.38h0c-.43,1.08-.93,2.27-1.4,3.24l-2.07,4.37H67.45l-.44-4.3c-.1-1-.17-2.22-.22-3.31h0c-.22,1.05-.47,2.45-.68,3.38l-1,4.34H63.77L65.9,402h1.92l.45,4.31c.07.82.15,1.78.17,2.66h0a25,25,0,0,1,1.06-2.64l2-4.33h2l-1.11,9.23Z"/><path class="cls-2" d="M78.79,407.16h-3l-.47,2.75h3.39l-.23,1.36H73.6L75.2,402h4.67l-.24,1.36H76.42L76,405.82h3Z"/><path class="cls-2" d="M79.42,411.27,81,402h1.68l1.47,4.29a26.61,26.61,0,0,1,.76,2.88h0a27.55,27.55,0,0,1,.37-3.12l.7-4h1.37l-1.6,9.23H84.31L82.8,406.9a23.48,23.48,0,0,1-.8-3h0c-.09.88-.26,2-.49,3.38l-.68,3.95Z"/><path class="cls-2" d="M90,403.44H87.69l.25-1.4h6.13l-.25,1.4H91.47l-1.35,7.83H88.66Z"/><path class="cls-2" d="M38.58,562.9a9.73,9.73,0,0,1,2.12-.22,3.52,3.52,0,0,1,2.24.66,2.2,2.2,0,0,1,.8,1.84,3.24,3.24,0,0,1-1.11,2.5,4.31,4.31,0,0,1-2.75.88,6.28,6.28,0,0,1-.82-.07L38.44,572h-1.5Zm.72,4.27a3.07,3.07,0,0,0,.79.09,2,2,0,0,0,2.13-2c0-1-.66-1.33-1.52-1.33a3.22,3.22,0,0,0-.83.08Z"/><path class="cls-2" d="M45.55,562.9a10.34,10.34,0,0,1,2.16-.22,3.61,3.61,0,0,1,2.2.61,2,2,0,0,1,.83,1.67,2.76,2.76,0,0,1-2,2.64v0c.57.23.82.88.89,1.75a16,16,0,0,0,.32,2.59H48.35a17.43,17.43,0,0,1-.24-2.21c-.06-1.17-.47-1.6-1.27-1.6H46.1L45.41,572h-1.5Zm.77,4.06h.86a1.81,1.81,0,0,0,2-1.77c0-.85-.64-1.23-1.49-1.23a3.09,3.09,0,0,0-.81.08Z"/><path class="cls-2" d="M54.29,562.75,52.62,572H51.1l1.67-9.23Z"/><path class="cls-2" d="M54.46,572l1.66-9.23h1.74L59.4,567a26.82,26.82,0,0,1,.79,2.89h0a24,24,0,0,1,.39-3.13l.72-4h1.43L61.1,572H59.55L58,567.61a22,22,0,0,1-.83-3l0,0c-.1.87-.28,2-.51,3.38L55.87,572Z"/><path class="cls-2" d="M65.9,564.15H63.46l.26-1.4h6.39l-.26,1.4H67.4L66,572H64.48Z"/><path class="cls-2" d="M11,697.89l-1.08,2.63H8.47l4-9.23h1.72l1,9.23H13.76l-.23-2.63Zm2.43-1.23-.23-2.3c0-.5-.08-1.21-.11-1.75h0c-.21.54-.42,1.2-.65,1.75l-1,2.3Z"/><path class="cls-2" d="M17.28,691.43a10.06,10.06,0,0,1,2.11-.21,3.76,3.76,0,0,1,2.92,1.11,3.81,3.81,0,0,1,.91,2.71,6,6,0,0,1-1.62,4.29,5.06,5.06,0,0,1-3.73,1.24,14.65,14.65,0,0,1-2.07-.14Zm.11,7.79a6.08,6.08,0,0,0,.87,0,3.06,3.06,0,0,0,2.52-1.14,4.8,4.8,0,0,0,.95-3.06c0-1.53-.7-2.56-2.37-2.56a4.41,4.41,0,0,0-.88.08Z"/><path class="cls-2" d="M30,700.52l.54-4.34c.11-.95.28-2.25.48-3.38h0c-.42,1.08-.89,2.27-1.33,3.24l-2,4.37H26.6l-.41-4.3c-.09-1-.17-2.22-.21-3.31h0c-.21,1.05-.45,2.45-.65,3.38l-.91,4.34H23.12l2-9.23H27l.42,4.31c.06.82.15,1.78.16,2.66h0c.29-.88.67-1.85,1-2.64l1.93-4.33h1.84l-1.05,9.23Z"/><path class="cls-2" d="M35.31,691.29l-1.51,9.23H32.41l1.52-9.23Z"/><path class="cls-2" d="M35.11,700.52l1.51-9.23h1.59l1.39,4.28a26.61,26.61,0,0,1,.73,2.89h0a29.27,29.27,0,0,1,.35-3.12l.67-4.05h1.3l-1.52,9.23h-1.4l-1.43-4.37a24.56,24.56,0,0,1-.76-3h-.05c-.08.88-.25,2-.46,3.38l-.65,3.95Z"/><path class="cls-2" d="M45.33,691.29l-1.51,9.23H42.43L44,691.29Z"/><path class="cls-2" d="M45.38,698.7a3,3,0,0,0,1.8.58,1.36,1.36,0,0,0,1.47-1.36c0-.61-.34-1-1.12-1.5a2.85,2.85,0,0,1-1.62-2.4,2.8,2.8,0,0,1,2.93-2.88,3.15,3.15,0,0,1,1.78.47l-.45,1.32a2.74,2.74,0,0,0-1.44-.41,1.26,1.26,0,0,0-1.38,1.21c0,.63.45,1,1.2,1.49a2.75,2.75,0,0,1,1.55,2.45,2.86,2.86,0,0,1-3.08,3,3.27,3.27,0,0,1-2.11-.64Z"/><path class="cls-2" d="M53.28,692.69H51.07l.23-1.4h5.81l-.24,1.4H54.65l-1.28,7.83H52Z"/><path class="cls-2" d="M57.67,691.44a8,8,0,0,1,2-.22,3.11,3.11,0,0,1,2,.6,2.06,2.06,0,0,1,.76,1.67,2.73,2.73,0,0,1-1.85,2.65v0c.52.23.75.87.82,1.75a17.43,17.43,0,0,0,.28,2.59H60.21a20.16,20.16,0,0,1-.21-2.21c-.06-1.17-.43-1.6-1.16-1.6h-.67l-.63,3.81H56.18Zm.7,4h.78a1.71,1.71,0,0,0,1.79-1.76c0-.85-.58-1.23-1.36-1.23a2.25,2.25,0,0,0-.73.08Z"/><path class="cls-2" d="M64.33,697.89l-1.09,2.63H61.77l4-9.23H67.5l1,9.23H67.06l-.22-2.63Zm2.42-1.23-.22-2.3c0-.5-.08-1.21-.12-1.75h0c-.22.54-.43,1.2-.65,1.75l-1,2.3Z"/><path class="cls-2" d="M71.79,692.69H69.58l.24-1.4h5.8l-.23,1.4H73.17l-1.28,7.83H70.5Z"/><path class="cls-2" d="M77.55,691.29,76,700.52H74.66l1.51-9.23Z"/><path class="cls-2" d="M85.06,695a6.89,6.89,0,0,1-1.44,4.41,3.7,3.7,0,0,1-2.85,1.3c-2.06,0-3.13-1.74-3.13-3.81a6.85,6.85,0,0,1,1.49-4.43,3.74,3.74,0,0,1,2.8-1.29C84.06,691.14,85.06,692.85,85.06,695Zm-4.87-1.68a5.86,5.86,0,0,0-1.1,3.5c0,1.4.55,2.55,1.88,2.55a2,2,0,0,0,1.55-.78A6.08,6.08,0,0,0,83.6,695c0-1.21-.37-2.53-1.83-2.53A2.06,2.06,0,0,0,80.19,693.28Z"/><path class="cls-2" d="M85.14,700.52l1.51-9.23h1.59l1.39,4.28a26.37,26.37,0,0,1,.72,2.89h0a26.87,26.87,0,0,1,.35-3.12l.66-4.05h1.3l-1.51,9.23H89.77l-1.43-4.37a24.38,24.38,0,0,1-.75-3h0c-.08.88-.25,2-.46,3.38l-.65,3.95Z"/><path class="cls-3" d="M6.88,679.13a3.78,3.78,0,1,1-3.76,3.8A3.78,3.78,0,0,1,6.88,679.13Z"/><path class="cls-3" d="M6.17,555.13a3.78,3.78,0,1,1-3.76,3.8A3.78,3.78,0,0,1,6.17,555.13Z"/><path class="cls-3" d="M5.46,385.06a3.78,3.78,0,1,1-3.75,3.8A3.77,3.77,0,0,1,5.46,385.06Z"/><path class="cls-3" d="M4.76,231.72A3.78,3.78,0,1,1,1,235.52,3.78,3.78,0,0,1,4.76,231.72Z"/><path class="cls-3" d="M5.06,102.78a3.78,3.78,0,1,1-3.76,3.8A3.78,3.78,0,0,1,5.06,102.78Z"/><path class="cls-4" d="M79.39,98.81V95.14a9.8,9.8,0,0,0-2.88-7"/><path class="cls-4" d="M62.61,88.19a9.8,9.8,0,0,0-2.88,7v3.67"/><line class="cls-4" x1="64.15" y1="98.58" x2="64.15" y2="94.72"/><line class="cls-4" x1="74.97" y1="98.58" x2="74.97" y2="94.72"/><line class="cls-5" x1="69.56" y1="89.57" x2="69.56" y2="91.24"/><line class="cls-5" x1="69.56" y1="93.16" x2="69.56" y2="94.83"/><path class="cls-6" d="M78.54,78.63a9,9,0,1,1-9-9A9,9,0,0,1,78.54,78.63Z"/><line class="cls-6" x1="66.33" y1="77.36" x2="66.33" y2="78.82"/><line class="cls-6" x1="72.8" y1="77.36" x2="72.8" y2="78.82"/><path class="cls-6" d="M72.22,81.9A3.75,3.75,0,0,1,69.56,83h0a3.71,3.71,0,0,1-2.65-1.1"/><path class="cls-7" d="M48.67,67.9a9.71,9.71,0,0,1,7.52,15.85,5.93,5.93,0,0,0,3.65,3.57H48.67a9.71,9.71,0,0,1,0-19.42Z"/><line class="cls-7" x1="52.66" y1="74.51" x2="44.22" y2="74.51"/><line class="cls-7" x1="52.66" y1="78.06" x2="44.22" y2="78.06"/><line class="cls-7" x1="52.66" y1="81.62" x2="44.22" y2="81.62"/><path class="cls-6" d="M44.72,85.27a3.61,3.61,0,1,1-3.6-3.6A3.6,3.6,0,0,1,44.72,85.27Z"/><path class="cls-6" d="M48.19,99.4V94.08a3.53,3.53,0,0,0-3.54-3.54H37.58A3.53,3.53,0,0,0,34,94.08V99.4"/><line class="cls-6" x1="37.24" y1="94.41" x2="37.24" y2="99.4"/><line class="cls-6" x1="44.99" y1="99.4" x2="44.99" y2="94.41"/><polygon class="cls-8" points="51.29 642.88 42.21 651.96 42.21 672.51 75.96 672.51 75.96 642.88 51.29 642.88"/><polygon class="cls-8" points="51.29 651.96 51.29 642.88 42.21 651.96 51.29 651.96"/><line class="cls-8" x1="46.29" y1="656.43" x2="59.73" y2="656.43"/><line class="cls-8" x1="46.29" y1="659.5" x2="59.73" y2="659.5"/><line class="cls-8" x1="46.29" y1="662.57" x2="59.73" y2="662.57"/><line class="cls-8" x1="46.29" y1="665.65" x2="59.73" y2="665.65"/><line class="cls-8" x1="54.87" y1="649.77" x2="57.56" y2="649.77"/><line class="cls-8" x1="59.35" y1="649.77" x2="62.04" y2="649.77"/><line class="cls-8" x1="63.83" y1="649.77" x2="66.51" y2="649.77"/><path class="cls-9" d="M19.53,667.19a5.25,5.25,0,0,0,.27,1.66,4.34,4.34,0,0,0,.73,1.34,3.49,3.49,0,0,0,1.09.91,2.84,2.84,0,0,0,1.32.33H32a1.79,1.79,0,0,0,.65-.13,1.61,1.61,0,0,0,.53-.36,1.77,1.77,0,0,0,.36-.53,1.69,1.69,0,0,0,0-1.3,1.77,1.77,0,0,0-.36-.53,1.47,1.47,0,0,0-.53-.36,1.61,1.61,0,0,0-.65-.13H30.89a.15.15,0,0,1,0-.07,183302608038.66,183302608038.66,0,0,0,0-.12v-.07h2.21a1.75,1.75,0,0,0,.65-.13,1.61,1.61,0,0,0,.53-.36,1.47,1.47,0,0,0,.36-.53,1.69,1.69,0,0,0,0-1.3,1.6,1.6,0,0,0-.36-.54,1.69,1.69,0,0,0-1.18-.48H31v-.26h2.17a1.75,1.75,0,0,0,.65-.13,1.61,1.61,0,0,0,.53-.36,1.47,1.47,0,0,0,.36-.53,1.69,1.69,0,0,0,0-1.3,1.39,1.39,0,0,0-.36-.53,1.47,1.47,0,0,0-.53-.36,1.58,1.58,0,0,0-.65-.14H31a.28.28,0,0,0,0-.09v-.09s0-.06,0-.09,0-.06,0-.09h8.52a1.78,1.78,0,0,0,.7-.14,1.75,1.75,0,0,0,1-1,1.8,1.8,0,0,0,0-1.39,1.75,1.75,0,0,0-1-.95,1.78,1.78,0,0,0-.7-.14H28.6l.75-.68.74-.69.75-.68.74-.69a2,2,0,0,0,.66-1.41,2,2,0,0,0-.12-.77,2,2,0,0,0-1.07-1.17,2,2,0,0,0-.76-.18,1.85,1.85,0,0,0-.77.11,2.11,2.11,0,0,0-.7.42l-1.38,1.26-1.37,1.27L24.69,655l-1.38,1.27,0,0,0,0,0,0,0,0-.18.14-.18.14-.18.14-.18.14a3.08,3.08,0,0,0-1.15.49"/><path class="cls-10" d="M76.9,385.06v-2.29a7.49,7.49,0,0,0-2.2-5.31"/><path class="cls-10" d="M64.1,377.46a7.52,7.52,0,0,0-2.19,5.31v2.29"/><line class="cls-10" x1="65.28" y1="384.88" x2="65.28" y2="382.35"/><line class="cls-10" x1="73.53" y1="384.88" x2="73.53" y2="382.35"/><line class="cls-10" x1="69.4" y1="378.51" x2="69.4" y2="379.79"/><line class="cls-10" x1="69.4" y1="381.25" x2="69.4" y2="382.53"/><path class="cls-10" d="M75.75,370.71a6.33,6.33,0,1,1-1.86-4.49A6.33,6.33,0,0,1,75.75,370.71Z"/><line class="cls-10" x1="65.65" y1="368.81" x2="65.65" y2="369.78"/><line class="cls-10" x1="70.1" y1="368.81" x2="70.1" y2="369.78"/><path class="cls-10" d="M69.64,371.83a2.48,2.48,0,0,1-1.77.73h0a2.48,2.48,0,0,1-1.76-.73"/><path class="cls-11" d="M46,353H66.5a2.3,2.3,0,0,1,2.3,2.3V361"/><polyline class="cls-12" points="71.17 358.98 68.8 361.36 66.43 358.98"/><path class="cls-11" d="M62.15,376.68h-20a2.29,2.29,0,0,1-2.29-2.3V368.7"/><polyline class="cls-12" points="37.46 370.69 39.84 368.32 42.21 370.69"/><path class="cls-11" d="M49,352.84a7.29,7.29,0,1,0-10.62,6.48v4.15a2.48,2.48,0,0,0,2.47,2.47h1.73A2.48,2.48,0,0,0,45,363.47v-4.15A7.27,7.27,0,0,0,49,352.84Z"/><line class="cls-11" x1="38.42" y1="361.37" x2="44.91" y2="361.37"/><line class="cls-11" x1="38.42" y1="363.34" x2="44.91" y2="363.34"/><path class="cls-11" d="M42.69,354.46a1,1,0,0,1-1,1h0a1,1,0,0,1-1-1V350a1,1,0,0,1,1-1h0a1,1,0,0,1,1,1Z"/><path class="cls-11" d="M42.69,357.53a1,1,0,1,1-1-1A1,1,0,0,1,42.69,357.53Z"/><polygon class="cls-13" points="60.83 198.05 60.83 200.11 43.81 200.11 43.81 198.05 39.37 198.05 39.37 227.44 65.26 227.44 65.26 198.05 60.83 198.05"/><rect class="cls-13" x="42.67" y="203.1" width="19.29" height="21.35"/><line class="cls-13" x1="49.17" y1="206.71" x2="57.78" y2="206.71"/><line class="cls-13" x1="49.17" y1="210.33" x2="57.78" y2="210.33"/><line class="cls-13" x1="49.17" y1="213.93" x2="57.78" y2="213.93"/><line class="cls-13" x1="49.17" y1="217.54" x2="57.78" y2="217.54"/><line class="cls-13" x1="46.85" y1="206.71" x2="48.06" y2="206.71"/><line class="cls-13" x1="46.85" y1="210.33" x2="48.06" y2="210.33"/><line class="cls-13" x1="46.85" y1="213.93" x2="48.06" y2="213.93"/><line class="cls-13" x1="46.85" y1="217.54" x2="48.06" y2="217.54"/><path class="cls-13" d="M56.13,196.4a3.82,3.82,0,0,0-7.63,0H43.81v3.71h17V196.4Zm-3.81.66a1.11,1.11,0,1,1,0-2.21,1.11,1.11,0,0,1,0,2.21Z"/><path class="cls-14" d="M62.14,228.29v-7.78L51.47,207.64a1.76,1.76,0,0,1,2.71-2.25l8.33,10.05,8.9-.05a1.67,1.67,0,0,1,.81.17c.48.21,4.84,2.38,6.24,10.72a31.19,31.19,0,0,1,.59,3.89,1.66,1.66,0,0,1-1.37,1.76l-.17,0a1.67,1.67,0,0,1-1.78-1.55,28.71,28.71,0,0,0-.55-3.55,16.71,16.71,0,0,0-2.9-6.44v8.19"/><path class="cls-14" d="M73.31,208.76a6,6,0,1,1-6-6A6,6,0,0,1,73.31,208.76Z"/><line class="cls-14" x1="65.17" y1="207.92" x2="65.17" y2="208.89"/><line class="cls-14" x1="69.48" y1="207.92" x2="69.48" y2="208.89"/><path class="cls-14" d="M69.1,210.94a2.53,2.53,0,0,1-1.78.73h0a2.52,2.52,0,0,1-1.77-.73"/><line class="cls-15" x1="53.76" y1="516.86" x2="56.78" y2="516.86"/><rect class="cls-15" x="45.05" y="514.47" width="25.31" height="16.96"/><path class="cls-15" d="M72.53,531.42H42.88a.66.66,0,0,0-.66.65v1.87a.66.66,0,0,0,.66.65H72.53a.65.65,0,0,0,.65-.65v-1.87A.65.65,0,0,0,72.53,531.42Z"/><path class="cls-16" d="M33.49,546v-3.32a8.86,8.86,0,0,1,2.61-6.28"/><path class="cls-16" d="M48.66,536.35a8.85,8.85,0,0,1,2.6,6.28V546"/><line class="cls-17" x1="47.27" y1="545.75" x2="47.27" y2="542.26"/><line class="cls-17" x1="37.49" y1="545.75" x2="37.49" y2="542.26"/><line class="cls-17" x1="42.38" y1="537.59" x2="42.38" y2="539.11"/><line class="cls-17" x1="42.38" y1="540.84" x2="42.38" y2="542.36"/><path class="cls-17" d="M34.53,527.89a8,8,0,1,0,2.34-5.66A8,8,0,0,0,34.53,527.89Z"/><line class="cls-17" x1="47.26" y1="525.49" x2="47.26" y2="526.71"/><line class="cls-17" x1="41.65" y1="525.49" x2="41.65" y2="526.71"/><path class="cls-17" d="M42.22,529.3a3.16,3.16,0,0,0,2.23.92h0a3.14,3.14,0,0,0,2.23-.92"/><rect class="cls-15" x="53.76" y="508.35" width="11.99" height="14.93"/><line class="cls-15" x1="56.25" y1="511.74" x2="63.26" y2="511.74"/><line class="cls-15" x1="56.25" y1="514.46" x2="63.26" y2="514.46"/><line class="cls-15" x1="56.25" y1="517.17" x2="63.26" y2="517.17"/><line class="cls-15" x1="56.25" y1="519.89" x2="63.26" y2="519.89"/><path class="cls-18" d="M41.13,271.63a5.93,5.93,0,0,1,1.17-.12,1.81,1.81,0,0,1,1.28.42,1.2,1.2,0,0,1,.4.93,1.74,1.74,0,0,1-1.27,1.64h0c.38.14.56.56.6,1.14a8.58,8.58,0,0,0,.17,1.56h-.69c0-.12-.09-.72-.13-1.37s-.31-1.1-.84-1.1h-.6l-.43,2.47h-.67Zm.19,2.57h.59A1.28,1.28,0,0,0,43.29,273c0-.61-.43-.88-1-.88a1.93,1.93,0,0,0-.56.06Z"/><path class="cls-18" d="M47.05,277a2.64,2.64,0,0,1-1.28.32,1.44,1.44,0,0,1-1.47-1.64c0-1.22.86-2.61,2.11-2.61a1,1,0,0,1,1.13,1.05c0,1.07-1.14,1.34-2.57,1.32a1.76,1.76,0,0,0,.08.77.86.86,0,0,0,.86.55,2.12,2.12,0,0,0,1-.28Zm-.15-2.87c0-.33-.24-.51-.59-.51-.63,0-1.1.64-1.26,1.28,1,0,1.85-.13,1.85-.76Z"/><path class="cls-18" d="M47.91,278.13a1.92,1.92,0,0,0,1,.27c.66,0,1.17-.35,1.39-1.45l.13-.61h0a1.55,1.55,0,0,1-1.34.87,1.26,1.26,0,0,1-1.18-1.41,2.6,2.6,0,0,1,2.45-2.75,3.11,3.11,0,0,1,1.25.29l-.6,3.35a3.12,3.12,0,0,1-.77,1.82,2,2,0,0,1-1.35.45,2.17,2.17,0,0,1-1.16-.29Zm3-4.38a1.43,1.43,0,0,0-.64-.15c-1,0-1.63,1.07-1.63,2.08,0,.45.15,1,.74,1s1.14-.75,1.28-1.55Z"/><path class="cls-18" d="M52.05,277.21l.74-4.07h.66l-.74,4.07Zm1.24-4.81a.42.42,0,0,1-.39-.46.48.48,0,0,1,.45-.49.42.42,0,0,1,.42.45.48.48,0,0,1-.47.5Z"/><path class="cls-18" d="M53.92,276.51a1.6,1.6,0,0,0,.83.25.67.67,0,0,0,.73-.66c0-.32-.13-.52-.54-.76a1.19,1.19,0,0,1-.69-1,1.3,1.3,0,0,1,1.4-1.26,1.58,1.58,0,0,1,.8.2l-.19.53a1.3,1.3,0,0,0-.66-.18.64.64,0,0,0-.69.61c0,.29.18.48.53.68a1.27,1.27,0,0,1,.72,1.07,1.34,1.34,0,0,1-1.48,1.34,1.7,1.7,0,0,1-1-.28Z"/><path class="cls-18" d="M58.56,272.17l-.17,1h.92l-.1.55h-.93l-.35,2a3,3,0,0,0-.08.65c0,.24.11.39.37.39a1.42,1.42,0,0,0,.31,0l0,.54a1.47,1.47,0,0,1-.51.08.74.74,0,0,1-.82-.79,3.63,3.63,0,0,1,.09-.76l.38-2.06h-.56l.1-.55h.55l.14-.74Z"/><path class="cls-18" d="M59.35,277.21l.47-2.62c.1-.53.15-1.07.19-1.45h.58c0,.29-.05.57-.1.88h0a1.44,1.44,0,0,1,1.19-1l.19,0-.13.69-.18,0c-.57,0-1.08.73-1.25,1.67l-.32,1.8Z"/><path class="cls-18" d="M64.45,277.21a10.33,10.33,0,0,1,.09-1h0c-.43.84-1,1.14-1.5,1.14s-1.11-.57-1.11-1.34a2.78,2.78,0,0,1,2.66-2.91,3.88,3.88,0,0,1,1,.15l-.39,2.13a9.12,9.12,0,0,0-.16,1.88Zm.43-3.55a1.49,1.49,0,0,0-.46-.06,2.14,2.14,0,0,0-1.82,2.23c0,.45.16.9.66.9s1.21-.76,1.39-1.84Z"/><path class="cls-18" d="M67.76,272.17l-.18,1h.93l-.11.55h-.92l-.35,2a3,3,0,0,0-.08.65c0,.24.11.39.36.39a1.35,1.35,0,0,0,.31,0l0,.54a1.47,1.47,0,0,1-.51.08.73.73,0,0,1-.81-.79,3.63,3.63,0,0,1,.09-.76l.37-2.06h-.55l.1-.55h.55l.13-.74Z"/><path class="cls-18" d="M68.54,277.21l.74-4.07h.66l-.73,4.07Zm1.24-4.81a.42.42,0,0,1-.39-.46.49.49,0,0,1,.46-.49.42.42,0,0,1,.41.45.48.48,0,0,1-.47.5Z"/><path class="cls-18" d="M71.93,277.3a1.52,1.52,0,0,1-1.51-1.67,2.38,2.38,0,0,1,2.14-2.58,1.52,1.52,0,0,1,1.51,1.69,2.39,2.39,0,0,1-2.14,2.56Zm.08-.56c.78,0,1.37-1.05,1.37-2,0-.47-.21-1.14-.9-1.14s-1.38,1.07-1.38,2c0,.67.35,1.14.9,1.14Z"/><path class="cls-18" d="M74.54,277.21l.51-2.88c.09-.46.15-.85.19-1.19h.59l-.1.8h0a1.7,1.7,0,0,1,1.43-.89c.46,0,1,.28,1,1.13a5.35,5.35,0,0,1-.07.65l-.44,2.38H77l.42-2.35a3,3,0,0,0,0-.53c0-.4-.15-.7-.61-.7s-1.14.6-1.31,1.6l-.35,2Z"/><path class="cls-18" d="M43,284.55l-1,5.66h-.67l1-5.66Z"/><path class="cls-18" d="M47.23,284.25l-.86,4.67c-.07.42-.13.89-.16,1.29h-.6l.1-.81h0a1.63,1.63,0,0,1-1.39.9c-.75,0-1.15-.65-1.15-1.48a2.62,2.62,0,0,1,2.38-2.77,1.76,1.76,0,0,1,.69.14l.34-1.94Zm-1.12,2.53a1,1,0,0,0-.63-.18c-.93,0-1.65,1-1.65,2.13,0,.49.16,1,.73,1s1.12-.62,1.29-1.53Z"/><path class="cls-18" d="M50.09,290a2.64,2.64,0,0,1-1.28.32,1.44,1.44,0,0,1-1.47-1.64c0-1.22.86-2.61,2.11-2.61a1,1,0,0,1,1.13,1.05c0,1.07-1.14,1.34-2.57,1.32a1.76,1.76,0,0,0,.08.77.87.87,0,0,0,.86.55,2.12,2.12,0,0,0,1-.28Zm-.15-2.87c0-.33-.24-.51-.59-.51-.63,0-1.1.64-1.26,1.28,1,0,1.85-.13,1.85-.76Z"/><path class="cls-18" d="M53.48,290.21a10.33,10.33,0,0,1,.09-1h0c-.43.84-1,1.14-1.5,1.14-.69,0-1.11-.57-1.11-1.34a2.78,2.78,0,0,1,2.66-2.91,3.88,3.88,0,0,1,1,.15l-.39,2.13a9.12,9.12,0,0,0-.16,1.88Zm.43-3.55a1.49,1.49,0,0,0-.46-.06,2.14,2.14,0,0,0-1.82,2.23c0,.45.15.9.66.9s1.21-.76,1.39-1.84Z"/><path class="cls-18" d="M56.64,289.33a2,2,0,0,0,1.14.36A1.07,1.07,0,0,0,59,288.64c0-.43-.23-.74-.79-1.06s-1.07-.85-1.07-1.45a1.69,1.69,0,0,1,1.82-1.66,1.91,1.91,0,0,1,1.1.29l-.24.57a1.66,1.66,0,0,0-.93-.27,1,1,0,0,0-1.07.92c0,.47.28.73.84,1a1.66,1.66,0,0,1,1,1.51,1.76,1.76,0,0,1-1.93,1.76,2.18,2.18,0,0,1-1.3-.4Z"/><path class="cls-18" d="M60.25,290.21l1.07-6H62L61.31,288h0l.36-.4L63,286.14h.82l-1.68,1.67,1.15,2.4H62.6l-.93-2-.49.45-.28,1.55Z"/><path class="cls-18" d="M66.67,290a2.64,2.64,0,0,1-1.28.32,1.44,1.44,0,0,1-1.47-1.64c0-1.22.86-2.61,2.11-2.61a1,1,0,0,1,1.13,1.05c0,1.07-1.14,1.34-2.57,1.32a1.93,1.93,0,0,0,.08.77.87.87,0,0,0,.86.55,2.12,2.12,0,0,0,1-.28Zm-.15-2.87c0-.33-.24-.51-.59-.51-.63,0-1.1.64-1.26,1.28,1,0,1.85-.13,1.85-.76Z"/><path class="cls-18" d="M69.2,285.17l-.17,1H70l-.1.55h-.93l-.35,2a3.84,3.84,0,0,0-.08.65c0,.24.11.39.37.39a1.42,1.42,0,0,0,.31,0l0,.54a1.47,1.47,0,0,1-.51.08.74.74,0,0,1-.82-.79,4.46,4.46,0,0,1,.09-.76l.38-2.06h-.55l.09-.55h.55l.14-.74Z"/><path class="cls-18" d="M72.64,290.05a2.43,2.43,0,0,1-1.12.25A1.43,1.43,0,0,1,70,288.73a2.53,2.53,0,0,1,2.36-2.68,1.7,1.7,0,0,1,.81.19l-.19.54a1.57,1.57,0,0,0-.66-.15,1.87,1.87,0,0,0-1.63,2c0,.66.32,1.09,1,1.09a2,2,0,0,0,.9-.23Z"/><path class="cls-18" d="M73.37,290.21l1.07-6h.67l-.48,2.61h0a1.63,1.63,0,0,1,1.38-.81,1,1,0,0,1,1,1.09,3.82,3.82,0,0,1-.06.68l-.43,2.39h-.67l.43-2.35a2.94,2.94,0,0,0,0-.57c0-.37-.17-.66-.6-.66s-1.15.63-1.31,1.54l-.36,2Z"/><path class="cls-18" d="M37.14,297.63a6.47,6.47,0,0,1,1.16-.12,1.71,1.71,0,0,1,1.24.39,1.12,1.12,0,0,1,.39.88,1.51,1.51,0,0,1-1.16,1.41v0a1.25,1.25,0,0,1,.89,1.26,1.68,1.68,0,0,1-.65,1.32,2.82,2.82,0,0,1-1.75.46,6.17,6.17,0,0,1-1.11-.09Zm-.24,5a3.08,3.08,0,0,0,.54,0c.78,0,1.51-.34,1.51-1.25,0-.66-.53-.95-1.13-.95h-.54Zm.48-2.7h.5c.77,0,1.36-.42,1.36-1.11,0-.54-.39-.77-1-.77a2.26,2.26,0,0,0-.55.05Z"/><path class="cls-18" d="M40.25,303.21l.47-2.62c.1-.53.15-1.07.19-1.45h.59c0,.29-.06.57-.11.88h0a1.41,1.41,0,0,1,1.18-1l.19,0-.13.69-.18,0c-.57,0-1.08.73-1.25,1.67l-.32,1.8Z"/><path class="cls-18" d="M45.36,303.21a10.33,10.33,0,0,1,.09-1h0a1.7,1.7,0,0,1-1.5,1.14c-.69,0-1.11-.57-1.11-1.34a2.78,2.78,0,0,1,2.67-2.91,3.86,3.86,0,0,1,1,.15l-.39,2.13a9.88,9.88,0,0,0-.16,1.88Zm.42-3.55a1.41,1.41,0,0,0-.45-.06,2.13,2.13,0,0,0-1.82,2.23c0,.45.15.9.65.9s1.21-.76,1.4-1.84Z"/><path class="cls-18" d="M47,303.21l.51-2.88c.09-.46.14-.85.18-1.19h.6l-.1.8h0a1.71,1.71,0,0,1,1.44-.89c.46,0,1,.28,1,1.13a3.9,3.9,0,0,1-.07.65l-.43,2.38h-.65l.42-2.35a4.34,4.34,0,0,0,0-.53c0-.4-.15-.7-.61-.7s-1.14.6-1.31,1.6l-.36,2Z"/><path class="cls-18" d="M55.32,297.25l-.85,4.67a9.88,9.88,0,0,0-.16,1.29H53.7l.1-.81h0a1.64,1.64,0,0,1-1.4.9c-.74,0-1.15-.65-1.15-1.48a2.62,2.62,0,0,1,2.39-2.77,1.67,1.67,0,0,1,.68.14l.35-1.94Zm-1.12,2.53a1,1,0,0,0-.63-.18c-.92,0-1.64,1-1.64,2.13,0,.49.16,1,.73,1s1.12-.62,1.29-1.53Z"/><path class="cls-18" d="M56.87,303.21l1-5.66h.73l1.23,3.2a11.81,11.81,0,0,1,.47,1.58h0a12.56,12.56,0,0,1,.23-1.78l.54-3h.62l-1,5.66h-.65L58.83,300a11.08,11.08,0,0,1-.5-1.63h0c-.06.53-.14,1.09-.28,1.86l-.53,3Z"/><path class="cls-18" d="M64.46,303.21a10.33,10.33,0,0,1,.09-1h0A1.7,1.7,0,0,1,63,303.3c-.69,0-1.11-.57-1.11-1.34a2.78,2.78,0,0,1,2.67-2.91,3.86,3.86,0,0,1,1,.15l-.39,2.13a10.78,10.78,0,0,0-.16,1.88Zm.42-3.55a1.41,1.41,0,0,0-.45-.06,2.13,2.13,0,0,0-1.82,2.23c0,.45.15.9.65.9s1.22-.76,1.4-1.84Z"/><path class="cls-18" d="M66.05,303.21l.52-2.88c.08-.46.14-.85.18-1.19h.58l-.1.77h0a1.63,1.63,0,0,1,1.36-.86.86.86,0,0,1,.9.91,1.64,1.64,0,0,1,1.41-.91,1,1,0,0,1,.94,1.07,4.49,4.49,0,0,1-.06.69l-.43,2.4h-.65l.42-2.35a3,3,0,0,0,0-.53c0-.42-.15-.7-.58-.7s-1,.59-1.21,1.49L69,303.21h-.64l.43-2.39a2.91,2.91,0,0,0,.05-.49c0-.35-.09-.7-.57-.7s-1.09.67-1.24,1.54l-.36,2Z"/><path class="cls-18" d="M72.5,303.21l.73-4.07h.66l-.73,4.07Zm1.23-4.81a.42.42,0,0,1-.39-.46.49.49,0,0,1,.46-.49.41.41,0,0,1,.41.45.47.47,0,0,1-.47.5Z"/><path class="cls-18" d="M74.33,303.21l.51-2.88c.09-.46.15-.85.19-1.19h.59l-.1.8h0a1.7,1.7,0,0,1,1.43-.89c.46,0,1,.28,1,1.13a4,4,0,0,1-.08.65l-.43,2.38h-.65l.42-2.35a3,3,0,0,0,.05-.53c0-.4-.15-.7-.61-.7s-1.14.6-1.31,1.6l-.35,2Z"/><path class="cls-18" d="M78.62,304.13a1.9,1.9,0,0,0,1,.27c.66,0,1.17-.35,1.39-1.45l.13-.61h0a1.55,1.55,0,0,1-1.34.87,1.26,1.26,0,0,1-1.18-1.41,2.6,2.6,0,0,1,2.45-2.75,3.11,3.11,0,0,1,1.25.29l-.6,3.35a3.06,3.06,0,0,1-.78,1.82,2,2,0,0,1-1.34.45,2.15,2.15,0,0,1-1.16-.29Zm3-4.38a1.43,1.43,0,0,0-.64-.15c-1,0-1.63,1.07-1.63,2.08,0,.45.15,1,.74,1s1.14-.75,1.28-1.55Z"/><path class="cls-18" d="M36.86,424.81a7.07,7.07,0,0,1,1.33-.12,2.45,2.45,0,0,1,2,.74,2.14,2.14,0,0,1,.51,1.52,3.76,3.76,0,0,1-1.07,2.69,3.55,3.55,0,0,1-2.45.78,10,10,0,0,1-1.3-.07Zm-.24,5a4.35,4.35,0,0,0,.7,0,2.48,2.48,0,0,0,1.92-.74A3.12,3.12,0,0,0,40,427a1.56,1.56,0,0,0-1.79-1.72,4.1,4.1,0,0,0-.74.06Z"/><path class="cls-18" d="M43.77,430.15a2.64,2.64,0,0,1-1.28.33A1.45,1.45,0,0,1,41,428.84c0-1.23.87-2.61,2.11-2.61a1,1,0,0,1,1.13,1c0,1.06-1.14,1.34-2.57,1.31a2,2,0,0,0,.08.78.89.89,0,0,0,.87.54,2.12,2.12,0,0,0,1-.27Zm-.14-2.86a.52.52,0,0,0-.59-.52c-.64,0-1.11.65-1.27,1.29,1,0,1.86-.14,1.86-.77Z"/><path class="cls-18" d="M44.64,429.69a1.7,1.7,0,0,0,.83.25.68.68,0,0,0,.73-.67c0-.31-.13-.52-.54-.75a1.2,1.2,0,0,1-.7-1,1.3,1.3,0,0,1,1.41-1.26,1.58,1.58,0,0,1,.8.2L47,427a1.2,1.2,0,0,0-.66-.19.64.64,0,0,0-.69.62c0,.29.18.47.53.67a1.3,1.3,0,0,1,.72,1.08,1.34,1.34,0,0,1-1.48,1.34,1.7,1.7,0,0,1-.95-.28Z"/><path class="cls-18" d="M47.57,430.38l.74-4.06H49l-.74,4.06Zm1.24-4.81a.41.41,0,0,1-.39-.45.48.48,0,0,1,.45-.49.42.42,0,0,1,.42.45.47.47,0,0,1-.47.49Z"/><path class="cls-18" d="M49.44,431.31a1.9,1.9,0,0,0,1,.26c.65,0,1.16-.34,1.39-1.44l.13-.61h0a1.53,1.53,0,0,1-1.34.86A1.26,1.26,0,0,1,49.44,429a2.6,2.6,0,0,1,2.45-2.74,3.06,3.06,0,0,1,1.24.28l-.6,3.36a3.12,3.12,0,0,1-.77,1.82,2,2,0,0,1-1.35.45,2.17,2.17,0,0,1-1.16-.29Zm3-4.39a1.6,1.6,0,0,0-.64-.14c-1,0-1.64,1.07-1.64,2.07,0,.46.15,1,.74,1s1.15-.76,1.29-1.55Z"/><path class="cls-18" d="M53.59,430.38l.51-2.88c.08-.45.14-.85.18-1.18h.6l-.11.8h0a1.7,1.7,0,0,1,1.44-.89c.45,0,1,.27,1,1.12a3.9,3.9,0,0,1-.07.66l-.43,2.37H56l.43-2.35a4.07,4.07,0,0,0,0-.52c0-.4-.15-.7-.6-.7s-1.14.59-1.32,1.6l-.35,2Z"/><path class="cls-18" d="M60.32,424.81a7.15,7.15,0,0,1,1.33-.12,2.47,2.47,0,0,1,2,.74,2.19,2.19,0,0,1,.51,1.52,3.73,3.73,0,0,1-1.08,2.69,3.51,3.51,0,0,1-2.44.78,9.88,9.88,0,0,1-1.3-.07Zm-.23,5a4.17,4.17,0,0,0,.69,0,2.47,2.47,0,0,0,1.92-.74,3.13,3.13,0,0,0,.74-2.12,1.57,1.57,0,0,0-1.8-1.72,4.1,4.1,0,0,0-.74.06Z"/><path class="cls-18" d="M64.45,430.38l.47-2.62c.09-.53.15-1.06.19-1.44h.58c0,.29,0,.56-.1.88h0a1.44,1.44,0,0,1,1.18-1H67l-.13.69h-.19c-.56,0-1.07.72-1.24,1.67l-.32,1.79Z"/><path class="cls-18" d="M69.55,430.38c0-.24,0-.63.09-1.05h0c-.43.85-1,1.15-1.5,1.15S67,429.9,67,429.13a2.77,2.77,0,0,1,2.66-2.9,3.88,3.88,0,0,1,1,.15l-.39,2.12a9.23,9.23,0,0,0-.16,1.88Zm.43-3.54a1.49,1.49,0,0,0-.46-.06A2.12,2.12,0,0,0,67.7,429c0,.45.15.89.66.89s1.21-.75,1.39-1.84Z"/><path class="cls-18" d="M71.24,430.38l.63-3.51h-.51l.1-.55H72l0-.22a2.52,2.52,0,0,1,.63-1.41,1.36,1.36,0,0,1,.92-.36,1,1,0,0,1,.53.11L74,425a.94.94,0,0,0-.39-.07c-.53,0-.78.54-.9,1.21l0,.19h.86l-.1.55h-.85l-.64,3.51Z"/><path class="cls-18" d="M75.11,425.35l-.17,1h.92l-.1.55h-.93l-.35,2a2.87,2.87,0,0,0-.08.64c0,.24.11.4.37.4a1,1,0,0,0,.31,0l0,.55a1.47,1.47,0,0,1-.51.08.74.74,0,0,1-.82-.79,4.68,4.68,0,0,1,.09-.77l.38-2.05h-.55l.09-.55h.55l.14-.75Z"/><path class="cls-18" d="M40,443.38l.39-3.05c.07-.54.19-1.37.28-1.92h0c-.25.57-.55,1.24-.84,1.82l-1.6,3.12h-.5l-.4-3.05c-.08-.65-.14-1.31-.17-1.89h0c-.12.52-.28,1.38-.41,1.92L36,443.38h-.62l1.4-5.65h.84L38,441c0,.48.11,1,.12,1.42h0c.17-.43.4-.93.63-1.4l1.66-3.26h.87l-.69,5.65Z"/><path class="cls-18" d="M43.26,443.48a1.52,1.52,0,0,1-1.51-1.68,2.39,2.39,0,0,1,2.14-2.57,1.52,1.52,0,0,1,1.51,1.68,2.4,2.4,0,0,1-2.13,2.57Zm.08-.56c.78,0,1.37-1.06,1.37-2,0-.47-.21-1.13-.9-1.13s-1.38,1.07-1.38,2c0,.66.35,1.14.9,1.14Z"/><path class="cls-18" d="M50,437.42l-.86,4.68c-.07.42-.13.89-.16,1.28h-.6l.1-.8h0a1.65,1.65,0,0,1-1.39.9c-.75,0-1.15-.65-1.15-1.48a2.62,2.62,0,0,1,2.38-2.77,1.76,1.76,0,0,1,.69.14l.34-1.95ZM48.86,440a1,1,0,0,0-.63-.18c-.93,0-1.65,1-1.65,2.12,0,.49.16,1,.73,1s1.12-.61,1.29-1.52Z"/><path class="cls-18" d="M50.05,443.38l.74-4.06h.66l-.74,4.06Zm1.24-4.81a.41.41,0,0,1-.39-.45.48.48,0,0,1,.45-.49.42.42,0,0,1,.42.45.47.47,0,0,1-.47.49Z"/><path class="cls-18" d="M52,443.38l.63-3.51h-.51l.1-.55h.52l0-.22a2.59,2.59,0,0,1,.63-1.41,1.36,1.36,0,0,1,.92-.36,1,1,0,0,1,.53.11l-.14.55a.91.91,0,0,0-.39-.07c-.53,0-.78.54-.9,1.21l0,.19h.86l-.1.55h-.85l-.63,3.51Z"/><path class="cls-18" d="M54.14,443.38l.73-4.06h.66l-.73,4.06Zm1.23-4.81a.41.41,0,0,1-.39-.45.48.48,0,0,1,.46-.49.42.42,0,0,1,.41.45.47.47,0,0,1-.47.49Z"/><path class="cls-18" d="M58.61,443.22a2.4,2.4,0,0,1-1.12.26A1.43,1.43,0,0,1,56,441.9a2.52,2.52,0,0,1,2.36-2.67,1.86,1.86,0,0,1,.81.18L59,440a1.43,1.43,0,0,0-.66-.15,1.86,1.86,0,0,0-1.63,2c0,.67.32,1.09.95,1.09a2,2,0,0,0,.9-.22Z"/><path class="cls-18" d="M61.9,443.38c0-.24,0-.63.09-1.05h0c-.43.85-1,1.15-1.5,1.15s-1.11-.58-1.11-1.35a2.77,2.77,0,0,1,2.66-2.9,3.88,3.88,0,0,1,1,.15l-.39,2.12a9.23,9.23,0,0,0-.16,1.88Zm.43-3.54a1.49,1.49,0,0,0-.46-.06A2.13,2.13,0,0,0,60.05,442c0,.45.15.89.66.89s1.21-.75,1.39-1.84Z"/><path class="cls-18" d="M65.21,438.35l-.18,1H66l-.11.55h-.92l-.35,2a2.87,2.87,0,0,0-.08.64c0,.24.11.4.36.4a.93.93,0,0,0,.31,0l0,.55a1.47,1.47,0,0,1-.51.08.74.74,0,0,1-.81-.79,4.58,4.58,0,0,1,.08-.77l.38-2.05h-.55l.1-.55h.55l.13-.75Z"/><path class="cls-18" d="M66,443.38l.74-4.06h.66l-.73,4.06Zm1.24-4.81a.41.41,0,0,1-.39-.45.48.48,0,0,1,.46-.49.42.42,0,0,1,.41.45.47.47,0,0,1-.47.49Z"/><path class="cls-18" d="M69.38,443.48a1.52,1.52,0,0,1-1.51-1.68A2.38,2.38,0,0,1,70,439.23a1.52,1.52,0,0,1,1.51,1.68,2.4,2.4,0,0,1-2.14,2.57Zm.08-.56c.78,0,1.37-1.06,1.37-2,0-.47-.21-1.13-.9-1.13s-1.38,1.07-1.38,2c0,.66.35,1.14.9,1.14Z"/><path class="cls-18" d="M72,443.38l.51-2.88c.09-.45.15-.85.19-1.18h.59l-.1.8h0a1.7,1.7,0,0,1,1.43-.89c.46,0,1,.27,1,1.12a4,4,0,0,1-.08.66l-.43,2.37h-.65l.42-2.35a2.78,2.78,0,0,0,0-.52c0-.4-.15-.7-.61-.7s-1.14.59-1.31,1.6l-.35,2Z"/><path class="cls-18" d="M38.52,455.51a1.93,1.93,0,0,0,1.14.36,1.08,1.08,0,0,0,1.16-1.06c0-.42-.22-.74-.79-1.06a1.61,1.61,0,0,1,.75-3.11,1.88,1.88,0,0,1,1.1.3l-.24.57a1.62,1.62,0,0,0-.92-.27,1,1,0,0,0-1.07.92c0,.46.27.72.84,1a1.67,1.67,0,0,1,1,1.51,1.77,1.77,0,0,1-1.94,1.76,2.14,2.14,0,0,1-1.29-.4Z"/><path class="cls-18" d="M42.12,456.38l.73-4.06h.67l-.74,4.06Zm1.24-4.81a.41.41,0,0,1-.39-.45.46.46,0,0,1,.45-.49.42.42,0,0,1,.42.45.47.47,0,0,1-.47.49Z"/><path class="cls-18" d="M44,456.38l.52-2.88c.08-.45.13-.85.17-1.18h.58l-.1.76h0a1.62,1.62,0,0,1,1.36-.85.86.86,0,0,1,.9.9,1.67,1.67,0,0,1,1.41-.9,1,1,0,0,1,.95,1.06,4.48,4.48,0,0,1-.07.69l-.43,2.4h-.64L49,454a3,3,0,0,0,.06-.53c0-.43-.16-.7-.59-.7s-1,.58-1.21,1.49l-.37,2.08h-.64l.44-2.38a3,3,0,0,0,0-.5c0-.34-.08-.69-.57-.69s-1.09.67-1.24,1.53l-.36,2Z"/><path class="cls-18" d="M54.17,452.32l-.53,2.88c-.08.45-.14.85-.17,1.18h-.6l.11-.76h0a1.71,1.71,0,0,1-1.36.86c-.5,0-1-.26-1-1.18a4,4,0,0,1,.08-.69l.42-2.29h.65l-.4,2.27a3.47,3.47,0,0,0-.07.59c0,.42.16.71.62.71s1.1-.6,1.26-1.49l.37-2.08Z"/><path class="cls-18" d="M54.59,456.38l1.08-6h.66l-1.07,6Z"/><path class="cls-18" d="M59,456.38c0-.24,0-.63.09-1.05h0c-.42.85-.95,1.15-1.5,1.15s-1.11-.58-1.11-1.35a2.77,2.77,0,0,1,2.67-2.9,3.94,3.94,0,0,1,1,.15l-.39,2.12a9.23,9.23,0,0,0-.16,1.88Zm.42-3.54a1.41,1.41,0,0,0-.45-.06A2.12,2.12,0,0,0,57.13,455c0,.45.15.89.65.89s1.22-.75,1.4-1.84Z"/><path class="cls-18" d="M62.28,451.35l-.17,1H63l-.1.55H62l-.35,2a2.87,2.87,0,0,0-.08.64c0,.24.11.4.37.4a1,1,0,0,0,.31,0l0,.55a1.47,1.47,0,0,1-.51.08.75.75,0,0,1-.82-.79,4.68,4.68,0,0,1,.09-.77l.38-2.05h-.55l.09-.55h.55l.14-.75Z"/><path class="cls-18" d="M63.07,456.38l.73-4.06h.67l-.74,4.06Zm1.24-4.81a.41.41,0,0,1-.39-.45.46.46,0,0,1,.45-.49.42.42,0,0,1,.42.45.47.47,0,0,1-.47.49Z"/><path class="cls-18" d="M66.45,456.48A1.52,1.52,0,0,1,65,454.8a2.38,2.38,0,0,1,2.13-2.57,1.52,1.52,0,0,1,1.52,1.68,2.41,2.41,0,0,1-2.14,2.57Zm.08-.56c.79,0,1.38-1.06,1.38-2,0-.47-.21-1.13-.91-1.13s-1.38,1.07-1.38,2c0,.66.35,1.14.91,1.14Z"/><path class="cls-18" d="M69.07,456.38l.51-2.88c.09-.45.14-.85.18-1.18h.6l-.1.8h0a1.7,1.7,0,0,1,1.44-.89c.45,0,1,.27,1,1.12a3.9,3.9,0,0,1-.07.66l-.43,2.37h-.65L72,454a4,4,0,0,0,0-.52c0-.4-.15-.7-.61-.7s-1.14.59-1.32,1.6l-.35,2Z"/><path class="cls-18" d="M39.69,585.52a5.37,5.37,0,0,1,1.16-.12,1.9,1.9,0,0,1,1.32.44,1.33,1.33,0,0,1,.39,1,2,2,0,0,1-.65,1.47,2.46,2.46,0,0,1-1.63.55,4.58,4.58,0,0,1-.55,0l-.4,2.26h-.66Zm.15,2.72a2.38,2.38,0,0,0,.53,0,1.4,1.4,0,0,0,1.52-1.38c0-.68-.46-.95-1.07-.95a2.49,2.49,0,0,0-.58.06Z"/><path class="cls-18" d="M42.69,591.09l.47-2.62c.1-.52.15-1.06.19-1.44h.59c0,.29-.06.56-.11.88h0a1.41,1.41,0,0,1,1.18-1l.19,0-.13.68h-.18c-.57,0-1.08.73-1.25,1.67l-.32,1.79Z"/><path class="cls-18" d="M46.78,591.19a1.52,1.52,0,0,1-1.5-1.68,2.38,2.38,0,0,1,2.13-2.57,1.52,1.52,0,0,1,1.52,1.69,2.4,2.4,0,0,1-2.14,2.56Zm.08-.56c.79,0,1.38-1.06,1.38-2,0-.47-.21-1.14-.91-1.14s-1.38,1.07-1.38,2c0,.66.36,1.14.91,1.14Z"/><path class="cls-18" d="M53.5,585.13l-.85,4.68a12.09,12.09,0,0,0-.16,1.28h-.61l.1-.8h0a1.64,1.64,0,0,1-1.4.9c-.74,0-1.15-.65-1.15-1.48a2.62,2.62,0,0,1,2.39-2.77,1.76,1.76,0,0,1,.69.14l.34-2Zm-1.12,2.54a1,1,0,0,0-.63-.18c-.92,0-1.64,1-1.64,2.13,0,.48.16,1,.73,1s1.12-.61,1.29-1.52Z"/><path class="cls-18" d="M57.35,587l-.52,2.88c-.08.45-.14.85-.17,1.18h-.6l.1-.76h0a1.73,1.73,0,0,1-1.37.86c-.49,0-1-.26-1-1.18a5,5,0,0,1,.07-.69l.43-2.29h.65l-.41,2.27a3.37,3.37,0,0,0-.06.59c0,.42.16.71.61.71s1.11-.6,1.27-1.49l.37-2.08Z"/><path class="cls-18" d="M60.42,590.93a2.39,2.39,0,0,1-1.11.26,1.43,1.43,0,0,1-1.49-1.57,2.53,2.53,0,0,1,2.36-2.68,1.86,1.86,0,0,1,.81.18l-.19.55a1.4,1.4,0,0,0-.66-.15,1.86,1.86,0,0,0-1.63,2c0,.67.32,1.09,1,1.09a2,2,0,0,0,.89-.22Z"/><path class="cls-18" d="M62.85,586.06l-.17,1h.92l-.1.55h-.92l-.36,2a3.61,3.61,0,0,0-.08.64c0,.25.12.4.37.4a1,1,0,0,0,.31,0l0,.55a1.47,1.47,0,0,1-.51.08.73.73,0,0,1-.81-.79,4.58,4.58,0,0,1,.08-.77l.38-2h-.55l.09-.55H62l.14-.75Z"/></g></g></svg>